<mxfile host="app.diagrams.net" modified="2024-01-02T14:41:37.615Z" agent="Mozilla/5.0 (Windows NT 10.0; Win64; x64) AppleWebKit/537.36 (KHTML, like Gecko) Chrome/120.0.0.0 Safari/537.36" version="22.1.16" etag="86BYTu7ush0kgOEWACJH" type="github">
  <diagram name="Page-1" id="e_Z1OQB9w0GTPOtqoMNn">
    <mxGraphModel>
      <root>
        <mxCell id="0" />
        <mxCell id="1" parent="0" />
      </root>
    </mxGraphModel>
  </diagram>
</mxfile>
